<?xml version="1.0" standalone="no"?>
<!DOCTYPE svg PUBLIC "-//W3C//DTD SVG 20010904//EN"
 "http://www.w3.org/TR/2001/REC-SVG-20010904/DTD/svg10.dtd">
<svg version="1.0" xmlns="http://www.w3.org/2000/svg"
 width="50.000000pt" height="50.000000pt" viewBox="0 0 50.000000 50.000000"
 preserveAspectRatio="xMidYMid meet">

<g transform="translate(0.000000,50.000000) scale(0.100000,-0.100000)"
fill="#000000" stroke="none">
<path d="M401 479 l-25 -10 44 -44 c27 -27 48 -41 53 -36 5 5 12 30 14 55 l6
46 -34 -1 c-19 0 -45 -5 -58 -10z"/>
<path d="M314 432 c-50 -37 -131 -124 -146 -157 -11 -24 -8 -29 35 -73 l47
-47 35 20 c43 22 160 144 170 175 6 18 -2 31 -36 66 -24 24 -48 44 -55 44 -6
0 -29 -13 -50 -28z m60 -61 c25 -28 5 -63 -32 -59 -34 4 -44 45 -16 65 23 17
28 17 48 -6z m-74 -74 c0 -2 -19 -21 -42 -42 l-43 -40 40 43 c36 39 45 47 45
39z"/>
<path d="M323 354 c-3 -8 -1 -20 5 -26 16 -16 42 -2 42 22 0 24 -38 28 -47 4z"/>
<path d="M127 322 c-26 -26 -47 -51 -47 -55 0 -4 16 -7 35 -7 19 0 35 5 35 10
0 6 19 31 41 55 l42 45 -30 0 c-21 0 -41 -12 -76 -48z"/>
<path d="M50 215 c-13 -14 -21 -27 -18 -30 2 -3 17 9 33 25 16 17 24 30 19 30
-6 0 -21 -11 -34 -25z"/>
<path d="M132 217 c-9 -10 -1 -23 32 -56 38 -37 44 -40 56 -26 11 14 8 21 -25
55 -43 44 -48 46 -63 27z"/>
<path d="M331 196 c-19 -20 -43 -38 -53 -42 -13 -4 -18 -15 -18 -40 0 -19 4
-34 8 -34 4 0 29 22 56 49 37 38 47 54 44 75 l-3 27 -34 -35z"/>
<path d="M106 139 c-9 -23 -15 -44 -12 -46 2 -3 23 4 46 14 l41 18 -29 28 -29
28 -17 -42z"/>
<path d="M54 138 l-29 -33 33 29 c17 17 32 31 32 33 0 8 -8 1 -36 -29z"/>
<path d="M134 58 l-29 -33 33 29 c30 28 37 36 29 36 -2 0 -16 -15 -33 -32z"/>
<path d="M205 60 c-16 -17 -24 -30 -19 -30 13 0 59 48 52 55 -2 3 -17 -9 -33
-25z"/>
<path d="M39 43 l-34 -38 38 34 c34 33 42 41 34 41 -2 0 -19 -17 -38 -37z"/>
</g>
</svg>
